<?xml version="1.0" encoding="utf-8" ?>
<svg xmlns="http://www.w3.org/2000/svg" baseProfile="full" height="1234" version="1.1" width="1234">
  <defs/>
  <svg height="100%" width="100%" x="0%" y="0%">
    <defs/>
    <svg height="100.0%" width="100.0%" x="0.0%" y="0.0%">
      <defs/>
      <svg height="12.0%" width="100.0%" x="0.0%" y="2.0%">
        <defs/>
        <rect fill="rgb(235, 235, 205)" height="100.0%" width="12.0%" x="2.0%" y="0.0%"/>
        <rect fill="rgb(40, 20, 0)" height="100.0%" width="12.0%" x="14.0%" y="0.0%"/>
        <rect fill="rgb(235, 235, 205)" height="100.0%" width="12.0%" x="26.0%" y="0.0%"/>
        <rect fill="rgb(40, 20, 0)" height="100.0%" width="12.0%" x="38.0%" y="0.0%"/>
        <rect fill="rgb(235, 235, 205)" height="100.0%" width="12.0%" x="50.0%" y="0.0%"/>
        <rect fill="rgb(40, 20, 0)" height="100.0%" width="12.0%" x="62.0%" y="0.0%"/>
        <rect fill="rgb(235, 235, 205)" height="100.0%" width="12.0%" x="74.0%" y="0.0%"/>
        <rect fill="rgb(40, 20, 0)" height="100.0%" width="12.0%" x="86.0%" y="0.0%"/>
      </svg>
      <svg height="12.0%" width="100.0%" x="0.0%" y="14.0%">
        <defs/>
        <rect fill="rgb(40, 20, 0)" height="100.0%" width="12.0%" x="2.0%" y="0.0%"/>
        <rect fill="rgb(235, 235, 205)" height="100.0%" width="12.0%" x="14.0%" y="0.0%"/>
        <rect fill="rgb(40, 20, 0)" height="100.0%" width="12.0%" x="26.0%" y="0.0%"/>
        <rect fill="rgb(235, 235, 205)" height="100.0%" width="12.0%" x="38.0%" y="0.0%"/>
        <rect fill="rgb(40, 20, 0)" height="100.0%" width="12.0%" x="50.0%" y="0.0%"/>
        <rect fill="rgb(235, 235, 205)" height="100.0%" width="12.0%" x="62.0%" y="0.0%"/>
        <rect fill="rgb(40, 20, 0)" height="100.0%" width="12.0%" x="74.0%" y="0.0%"/>
        <rect fill="rgb(235, 235, 205)" height="100.0%" width="12.0%" x="86.0%" y="0.0%"/>
      </svg>
      <svg height="12.0%" width="100.0%" x="0.0%" y="26.0%">
        <defs/>
        <rect fill="rgb(235, 235, 205)" height="100.0%" width="12.0%" x="2.0%" y="0.0%"/>
        <rect fill="rgb(40, 20, 0)" height="100.0%" width="12.0%" x="14.0%" y="0.0%"/>
        <rect fill="rgb(235, 235, 205)" height="100.0%" width="12.0%" x="26.0%" y="0.0%"/>
        <rect fill="rgb(40, 20, 0)" height="100.0%" width="12.0%" x="38.0%" y="0.0%"/>
        <rect fill="rgb(235, 235, 205)" height="100.0%" width="12.0%" x="50.0%" y="0.0%"/>
        <rect fill="rgb(40, 20, 0)" height="100.0%" width="12.0%" x="62.0%" y="0.0%"/>
        <rect fill="rgb(235, 235, 205)" height="100.0%" width="12.0%" x="74.0%" y="0.0%"/>
        <rect fill="rgb(40, 20, 0)" height="100.0%" width="12.0%" x="86.0%" y="0.0%"/>
      </svg>
      <svg height="12.0%" width="100.0%" x="0.0%" y="38.0%">
        <defs/>
        <rect fill="rgb(40, 20, 0)" height="100.0%" width="12.0%" x="2.0%" y="0.0%"/>
        <rect fill="rgb(235, 235, 205)" height="100.0%" width="12.0%" x="14.0%" y="0.0%"/>
        <rect fill="rgb(40, 20, 0)" height="100.0%" width="12.0%" x="26.0%" y="0.0%"/>
        <rect fill="rgb(235, 235, 205)" height="100.0%" width="12.0%" x="38.0%" y="0.0%"/>
        <rect fill="rgb(40, 20, 0)" height="100.0%" width="12.0%" x="50.0%" y="0.0%"/>
        <rect fill="rgb(235, 235, 205)" height="100.0%" width="12.0%" x="62.0%" y="0.0%"/>
        <rect fill="rgb(40, 20, 0)" height="100.0%" width="12.0%" x="74.0%" y="0.0%"/>
        <rect fill="rgb(235, 235, 205)" height="100.0%" width="12.0%" x="86.0%" y="0.0%"/>
      </svg>
      <svg height="12.0%" width="100.0%" x="0.0%" y="50.0%">
        <defs/>
        <rect fill="rgb(235, 235, 205)" height="100.0%" width="12.0%" x="2.0%" y="0.0%"/>
        <rect fill="rgb(40, 20, 0)" height="100.0%" width="12.0%" x="14.0%" y="0.0%"/>
        <rect fill="rgb(235, 235, 205)" height="100.0%" width="12.0%" x="26.0%" y="0.0%"/>
        <rect fill="rgb(40, 20, 0)" height="100.0%" width="12.0%" x="38.0%" y="0.0%"/>
        <rect fill="rgb(235, 235, 205)" height="100.0%" width="12.0%" x="50.0%" y="0.0%"/>
        <rect fill="rgb(40, 20, 0)" height="100.0%" width="12.0%" x="62.0%" y="0.0%"/>
        <rect fill="rgb(235, 235, 205)" height="100.0%" width="12.0%" x="74.0%" y="0.0%"/>
        <rect fill="rgb(40, 20, 0)" height="100.0%" width="12.0%" x="86.0%" y="0.0%"/>
      </svg>
      <svg height="12.0%" width="100.0%" x="0.0%" y="62.0%">
        <defs/>
        <rect fill="rgb(40, 20, 0)" height="100.0%" width="12.0%" x="2.0%" y="0.0%"/>
        <rect fill="rgb(235, 235, 205)" height="100.0%" width="12.0%" x="14.0%" y="0.0%"/>
        <rect fill="rgb(40, 20, 0)" height="100.0%" width="12.0%" x="26.0%" y="0.0%"/>
        <rect fill="rgb(235, 235, 205)" height="100.0%" width="12.0%" x="38.0%" y="0.0%"/>
        <rect fill="rgb(40, 20, 0)" height="100.0%" width="12.0%" x="50.0%" y="0.0%"/>
        <rect fill="rgb(235, 235, 205)" height="100.0%" width="12.0%" x="62.0%" y="0.0%"/>
        <rect fill="rgb(40, 20, 0)" height="100.0%" width="12.0%" x="74.0%" y="0.0%"/>
        <rect fill="rgb(235, 235, 205)" height="100.0%" width="12.0%" x="86.0%" y="0.0%"/>
      </svg>
      <svg height="12.0%" width="100.0%" x="0.0%" y="74.0%">
        <defs/>
        <rect fill="rgb(235, 235, 205)" height="100.0%" width="12.0%" x="2.0%" y="0.0%"/>
        <rect fill="rgb(40, 20, 0)" height="100.0%" width="12.0%" x="14.0%" y="0.0%"/>
        <rect fill="rgb(235, 235, 205)" height="100.0%" width="12.0%" x="26.0%" y="0.0%"/>
        <rect fill="rgb(40, 20, 0)" height="100.0%" width="12.0%" x="38.0%" y="0.0%"/>
        <rect fill="rgb(235, 235, 205)" height="100.0%" width="12.0%" x="50.0%" y="0.0%"/>
        <rect fill="rgb(40, 20, 0)" height="100.0%" width="12.0%" x="62.0%" y="0.0%"/>
        <rect fill="rgb(235, 235, 205)" height="100.0%" width="12.0%" x="74.0%" y="0.0%"/>
        <rect fill="rgb(40, 20, 0)" height="100.0%" width="12.0%" x="86.0%" y="0.0%"/>
      </svg>
      <svg height="12.0%" width="100.0%" x="0.0%" y="86.0%">
        <defs/>
        <rect fill="rgb(40, 20, 0)" height="100.0%" width="12.0%" x="2.0%" y="0.0%"/>
        <rect fill="rgb(235, 235, 205)" height="100.0%" width="12.0%" x="14.0%" y="0.0%"/>
        <rect fill="rgb(40, 20, 0)" height="100.0%" width="12.0%" x="26.0%" y="0.0%"/>
        <rect fill="rgb(235, 235, 205)" height="100.0%" width="12.0%" x="38.0%" y="0.0%"/>
        <rect fill="rgb(40, 20, 0)" height="100.0%" width="12.0%" x="50.0%" y="0.0%"/>
        <rect fill="rgb(235, 235, 205)" height="100.0%" width="12.0%" x="62.0%" y="0.0%"/>
        <rect fill="rgb(40, 20, 0)" height="100.0%" width="12.0%" x="74.0%" y="0.0%"/>
        <rect fill="rgb(235, 235, 205)" height="100.0%" width="12.0%" x="86.0%" y="0.0%"/>
      </svg>
    </svg>
  </svg>
</svg>
