<?xml version="1.0" encoding="utf-8" ?>
<svg xmlns="http://www.w3.org/2000/svg" xmlns:ev="http://www.w3.org/2001/xml-events" xmlns:xlink="http://www.w3.org/1999/xlink" baseProfile="full" height="1000" version="1.1" width="1000">
  <defs/>
  <svg height="100%" width="100%" x="0%" y="0%">
    <defs/>
    <svg height="100.0%" width="100.0%" x="0%" y="0%">
      <defs/>
      <svg height="10.0%" width="100.0%" x="0.0%" y="10.0%">
        <defs/>
        <rect fill="rgb(194, 70, 164)" height="100.0%" width="10.0%" x="10.0%" y="0.0%"/>
        <rect fill="rgb(176, 80, 142)" height="100.0%" width="10.0%" x="20.0%" y="0.0%"/>
        <rect fill="rgb(38, 83, 32)" height="100.0%" width="10.0%" x="30.0%" y="0.0%"/>
        <rect fill="rgb(94, 145, 1)" height="100.0%" width="10.0%" x="40.0%" y="0.0%"/>
        <rect fill="rgb(141, 43, 33)" height="100.0%" width="10.0%" x="50.0%" y="0.0%"/>
        <rect fill="rgb(79, 248, 251)" height="100.0%" width="10.0%" x="60.0%" y="0.0%"/>
        <rect fill="rgb(142, 145, 127)" height="100.0%" width="10.0%" x="70.0%" y="0.0%"/>
        <rect fill="rgb(14, 131, 26)" height="100.0%" width="10.0%" x="80.0%" y="0.0%"/>
      </svg>
      <svg height="10.0%" width="100.0%" x="0.0%" y="20.0%">
        <defs/>
        <rect fill="rgb(96, 195, 132)" height="100.0%" width="10.0%" x="10.0%" y="0.0%"/>
        <rect fill="rgb(112, 202, 74)" height="100.0%" width="10.0%" x="20.0%" y="0.0%"/>
        <rect fill="rgb(126, 66, 81)" height="100.0%" width="10.0%" x="30.0%" y="0.0%"/>
        <rect fill="rgb(206, 141, 121)" height="100.0%" width="10.0%" x="40.0%" y="0.0%"/>
        <rect fill="rgb(179, 164, 34)" height="100.0%" width="10.0%" x="50.0%" y="0.0%"/>
        <rect fill="rgb(135, 117, 15)" height="100.0%" width="10.0%" x="60.0%" y="0.0%"/>
        <rect fill="rgb(18, 38, 113)" height="100.0%" width="10.0%" x="70.0%" y="0.0%"/>
        <rect fill="rgb(105, 130, 17)" height="100.0%" width="10.0%" x="80.0%" y="0.0%"/>
      </svg>
      <svg height="10.0%" width="100.0%" x="0.0%" y="30.0%">
        <defs/>
        <rect fill="rgb(18, 243, 120)" height="100.0%" width="10.0%" x="10.0%" y="0.0%"/>
        <rect fill="rgb(101, 4, 255)" height="100.0%" width="10.0%" x="20.0%" y="0.0%"/>
        <rect fill="rgb(2, 179, 230)" height="100.0%" width="10.0%" x="30.0%" y="0.0%"/>
        <rect fill="rgb(13, 161, 81)" height="100.0%" width="10.0%" x="40.0%" y="0.0%"/>
        <rect fill="rgb(132, 83, 120)" height="100.0%" width="10.0%" x="50.0%" y="0.0%"/>
        <rect fill="rgb(51, 228, 154)" height="100.0%" width="10.0%" x="60.0%" y="0.0%"/>
        <rect fill="rgb(65, 201, 196)" height="100.0%" width="10.0%" x="70.0%" y="0.0%"/>
        <rect fill="rgb(131, 32, 53)" height="100.0%" width="10.0%" x="80.0%" y="0.0%"/>
      </svg>
      <svg height="10.0%" width="100.0%" x="0.0%" y="40.0%">
        <defs/>
        <rect fill="rgb(109, 35, 57)" height="100.0%" width="10.0%" x="10.0%" y="0.0%"/>
        <rect fill="rgb(237, 66, 94)" height="100.0%" width="10.0%" x="20.0%" y="0.0%"/>
        <rect fill="rgb(0, 232, 50)" height="100.0%" width="10.0%" x="30.0%" y="0.0%"/>
        <rect fill="rgb(195, 13, 121)" height="100.0%" width="10.0%" x="40.0%" y="0.0%"/>
        <rect fill="rgb(139, 113, 66)" height="100.0%" width="10.0%" x="50.0%" y="0.0%"/>
        <rect fill="rgb(114, 250, 19)" height="100.0%" width="10.0%" x="60.0%" y="0.0%"/>
        <rect fill="rgb(195, 45, 103)" height="100.0%" width="10.0%" x="70.0%" y="0.0%"/>
        <rect fill="rgb(141, 229, 170)" height="100.0%" width="10.0%" x="80.0%" y="0.0%"/>
      </svg>
      <svg height="10.0%" width="100.0%" x="0.0%" y="50.0%">
        <defs/>
        <rect fill="rgb(59, 111, 155)" height="100.0%" width="10.0%" x="10.0%" y="0.0%"/>
        <rect fill="rgb(182, 213, 97)" height="100.0%" width="10.0%" x="20.0%" y="0.0%"/>
        <rect fill="rgb(147, 79, 163)" height="100.0%" width="10.0%" x="30.0%" y="0.0%"/>
        <rect fill="rgb(160, 228, 236)" height="100.0%" width="10.0%" x="40.0%" y="0.0%"/>
        <rect fill="rgb(50, 218, 43)" height="100.0%" width="10.0%" x="50.0%" y="0.0%"/>
        <rect fill="rgb(81, 101, 9)" height="100.0%" width="10.0%" x="60.0%" y="0.0%"/>
        <rect fill="rgb(190, 210, 213)" height="100.0%" width="10.0%" x="70.0%" y="0.0%"/>
        <rect fill="rgb(211, 235, 102)" height="100.0%" width="10.0%" x="80.0%" y="0.0%"/>
      </svg>
      <svg height="10.0%" width="100.0%" x="0.0%" y="60.0%">
        <defs/>
        <rect fill="rgb(229, 5, 231)" height="100.0%" width="10.0%" x="10.0%" y="0.0%"/>
        <rect fill="rgb(161, 93, 1)" height="100.0%" width="10.0%" x="20.0%" y="0.0%"/>
        <rect fill="rgb(130, 139, 226)" height="100.0%" width="10.0%" x="30.0%" y="0.0%"/>
        <rect fill="rgb(72, 249, 67)" height="100.0%" width="10.0%" x="40.0%" y="0.0%"/>
        <rect fill="rgb(246, 86, 240)" height="100.0%" width="10.0%" x="50.0%" y="0.0%"/>
        <rect fill="rgb(218, 222, 169)" height="100.0%" width="10.0%" x="60.0%" y="0.0%"/>
        <rect fill="rgb(6, 238, 253)" height="100.0%" width="10.0%" x="70.0%" y="0.0%"/>
        <rect fill="rgb(198, 123, 178)" height="100.0%" width="10.0%" x="80.0%" y="0.0%"/>
      </svg>
      <svg height="10.0%" width="100.0%" x="0.0%" y="70.0%">
        <defs/>
        <rect fill="rgb(131, 200, 59)" height="100.0%" width="10.0%" x="10.0%" y="0.0%"/>
        <rect fill="rgb(231, 159, 176)" height="100.0%" width="10.0%" x="20.0%" y="0.0%"/>
        <rect fill="rgb(104, 62, 244)" height="100.0%" width="10.0%" x="30.0%" y="0.0%"/>
        <rect fill="rgb(124, 209, 78)" height="100.0%" width="10.0%" x="40.0%" y="0.0%"/>
        <rect fill="rgb(48, 242, 45)" height="100.0%" width="10.0%" x="50.0%" y="0.0%"/>
        <rect fill="rgb(49, 85, 69)" height="100.0%" width="10.0%" x="60.0%" y="0.0%"/>
        <rect fill="rgb(161, 164, 199)" height="100.0%" width="10.0%" x="70.0%" y="0.0%"/>
        <rect fill="rgb(227, 226, 99)" height="100.0%" width="10.0%" x="80.0%" y="0.0%"/>
      </svg>
      <svg height="10.0%" width="100.0%" x="0.0%" y="80.0%">
        <defs/>
        <rect fill="rgb(30, 149, 137)" height="100.0%" width="10.0%" x="10.0%" y="0.0%"/>
        <rect fill="rgb(0, 51, 226)" height="100.0%" width="10.0%" x="20.0%" y="0.0%"/>
        <rect fill="rgb(4, 197, 156)" height="100.0%" width="10.0%" x="30.0%" y="0.0%"/>
        <rect fill="rgb(132, 230, 213)" height="100.0%" width="10.0%" x="40.0%" y="0.0%"/>
        <rect fill="rgb(39, 35, 77)" height="100.0%" width="10.0%" x="50.0%" y="0.0%"/>
        <rect fill="rgb(148, 85, 53)" height="100.0%" width="10.0%" x="60.0%" y="0.0%"/>
        <rect fill="rgb(76, 119, 233)" height="100.0%" width="10.0%" x="70.0%" y="0.0%"/>
        <rect fill="rgb(119, 92, 105)" height="100.0%" width="10.0%" x="80.0%" y="0.0%"/>
      </svg>
    </svg>
  </svg>
</svg>
