<?xml version="1.0" encoding="utf-8" ?>
<svg xmlns="http://www.w3.org/2000/svg" xmlns:ev="http://www.w3.org/2001/xml-events" xmlns:xlink="http://www.w3.org/1999/xlink" baseProfile="full" height="1000" version="1.1" width="1000">
  <defs/>
  <svg height="100%" width="100%" x="0%" y="0%">
    <defs/>
    <svg height="100.0%" width="62.5%" x="0.0%" y="-50.0%">
      <defs/>
      <rect fill="rgb(40, 20, 0)" height="100.0%" width="20.0%" x="0.0%" y="0.0%"/>
      <rect fill="rgb(235, 235, 205)" height="100.0%" width="20.0%" x="20.0%" y="0.0%"/>
      <rect fill="rgb(40, 20, 0)" height="100.0%" width="20.0%" x="40.0%" y="0.0%"/>
      <rect fill="rgb(235, 235, 205)" height="100.0%" width="20.0%" x="60.0%" y="0.0%"/>
      <rect fill="rgb(40, 20, 0)" height="100.0%" width="20.0%" x="80.0%" y="0.0%"/>
    </svg>
    <svg height="100.0%" width="100.0%" x="0.0%" y="50.0%">
      <defs/>
      <rect fill="rgb(40, 20, 0)" height="100.0%" width="12.5%" x="0.0%" y="0.0%"/>
      <rect fill="rgb(235, 235, 205)" height="100.0%" width="12.5%" x="12.5%" y="0.0%"/>
      <rect fill="rgb(40, 20, 0)" height="100.0%" width="12.5%" x="25.0%" y="0.0%"/>
      <rect fill="rgb(235, 235, 205)" height="100.0%" width="12.5%" x="37.5%" y="0.0%"/>
      <rect fill="rgb(40, 20, 0)" height="100.0%" width="12.5%" x="50.0%" y="0.0%"/>
      <rect fill="rgb(235, 235, 205)" height="100.0%" width="12.5%" x="62.5%" y="0.0%"/>
      <rect fill="rgb(40, 20, 0)" height="100.0%" width="12.5%" x="75.0%" y="0.0%"/>
      <rect fill="rgb(235, 235, 205)" height="100.0%" width="12.5%" x="87.5%" y="0.0%"/>
    </svg>
  </svg>
</svg>
